Coordinates
version=1
nRows=14
nColumns=40
inDegrees=yes

Units are S.I. units (second, meters, Newtons, ...)
Angles are in degrees.

endheader
time	pelvis_tilt	pelvis_list	pelvis_rotation	pelvis_tx	pelvis_ty	pelvis_tz	hip_flexion_r	hip_adduction_r	hip_rotation_r	knee_angle_r	knee_angle_r_beta	ankle_angle_r	subtalar_angle_r	mtp_angle_r	hip_flexion_l	hip_adduction_l	hip_rotation_l	knee_angle_l	knee_angle_l_beta	ankle_angle_l	subtalar_angle_l	mtp_angle_l	lumbar_extension	lumbar_bending	lumbar_rotation	arm_flex_r	arm_add_r	arm_rot_r	elbow_flex_r	pro_sup_r	wrist_flex_r	wrist_dev_r	arm_flex_l	arm_add_l	arm_rot_l	elbow_flex_l	pro_sup_l	wrist_flex_l	wrist_dev_l
     44.03000000	     -5.40199204	     -5.21498587	      0.27667464	      1.00197222	      0.92134693	      0.44283244	      8.09069477	     -6.59691865	     -9.01927273	     43.60161140	     43.60161140	      1.81039718	    -11.38048285	    -19.97373261	     20.12624167	     -3.08861071	     -0.92417217	     31.49806303	     31.49806303	     19.39971687	    -18.36574303	     13.20965320	     -9.77557086	      7.11682876	      3.14707623	     27.35803554	    -16.87048152	    -25.00317409	     31.02036507	     45.53027120	      0.00000000	      0.00000000	     10.18883776	    -15.63953618	     12.03367129	     38.17764486	     45.23822063	      0.00000000	      0.00000000
     44.04914286	     -5.21501730	     -5.21134538	     -0.34328365	      1.00109242	      0.91955278	      0.44085160	     10.46152445	     -6.77446649	     -7.73887393	     47.97082081	     47.97082081	      0.54815974	    -13.93490507	    -18.17212812	     19.92210547	     -3.08898825	     -1.33925075	     32.38346852	     32.38346852	     20.22152201	    -18.51127552	     13.11162608	    -10.01798493	      7.36991960	      2.93625095	     23.91644574	    -16.12328225	    -25.14511017	     29.62878681	     45.59997428	      0.00000000	      0.00000000	     12.02311790	    -16.05748667	     11.59423731	     39.53267872	     45.34738246	      0.00000000	      0.00000000
     44.06828571	     -5.06014989	     -5.13167039	     -0.97153577	      1.00007266	      0.91770805	      0.43895764	     12.92355587	     -6.98666295	     -6.63369514	     52.35021743	     52.35021743	      0.79191617	    -14.88223159	    -12.47532905	     19.72472722	     -2.98835675	     -1.73837167	     33.23532904	     33.23532904	     21.27555230	    -18.61949219	     13.65648559	    -10.27933287	      7.55733240	      2.80084723	     20.28016967	    -15.32637744	    -25.38553502	     28.47068781	     45.71674020	      0.00000000	      0.00000000	     13.91223865	    -16.57554539	     11.18886029	     40.99141913	     45.51159168	      0.00000000	      0.00000000
     44.08742857	     -4.88159155	     -5.08596015	     -1.61911899	      0.99898727	      0.91609651	      0.43731261	     15.18489585	     -7.00226365	     -5.58133515	     56.10500445	     56.10500445	      1.14800805	    -15.84648265	     -7.06882914	     19.41114416	     -2.95305807	     -2.21036034	     33.90688964	     33.90688964	     22.11409594	    -18.69862654	     13.78695792	    -10.59252759	      7.76138639	      2.80707282	     16.78812820	    -14.67327704	    -25.51328521	     26.85044939	     45.84567929	      0.00000000	      0.00000000	     16.04424014	    -17.00756536	     10.82542836	     42.13265817	     45.66560634	      0.00000000	      0.00000000
     44.10657143	     -4.74023293	     -5.06019104	     -2.31277965	      0.99777911	      0.91481347	      0.43603508	     17.32030451	     -6.90839965	     -4.70389597	     59.20164981	     59.20164981	      1.87666935	    -16.51827626	     -1.82812414	     19.04765392	     -2.97685284	     -2.77811943	     34.38905136	     34.38905136	     22.80715697	    -18.75362836	     13.78291141	    -10.90431126	      7.97175590	      2.83904614	     13.47022076	    -14.02263203	    -25.61491160	     25.20708157	     45.98451616	      0.00000000	      0.00000000	     18.15340290	    -17.48764542	     10.33217498	     43.25335794	     45.82836601	      0.00000000	      0.00000000
     44.12571429	     -4.63931149	     -4.97107211	     -2.96811378	      0.99644694	      0.91403180	      0.43500228	     19.27185143	     -6.85032059	     -4.09436587	     61.48313549	     61.48313549	      2.63799946	    -17.19712347	      1.97297533	     18.57566874	     -2.93184343	     -3.35147709	     34.53205596	     34.53205596	     23.25549441	    -18.77387242	     13.65955924	    -11.18988510	      8.09663587	      2.88404998	     10.32466264	    -13.44274950	    -25.63294023	     23.59199790	     46.10913217	      0.00000000	      0.00000000	     20.21637989	    -17.79331535	      9.67978033	     44.50764119	     45.98474181	      0.00000000	      0.00000000
     44.14485714	     -4.58245009	     -4.91185492	     -3.68494072	      0.99497537	      0.91391212	      0.43438853	     21.00565291	     -6.73450153	     -3.69772331	     62.77468266	     62.77468266	      2.92501964	    -17.80517494	      2.82087527	     18.01656334	     -2.93939772	     -3.95350888	     34.40928427	     34.40928427	     23.57114074	    -18.77379007	     13.53926953	    -11.46591439	      8.23972457	      2.92438781	      7.39139999	    -12.89878923	    -25.62203500	     22.13444875	     46.16776010	      0.00000000	      0.00000000	     22.20273462	    -18.29004341	      9.07597241	     45.78733604	     46.08776644	      0.00000000	      0.00000000
     44.16400000	     -4.58111398	     -4.91042896	     -4.42118753	      0.99339017	      0.91456231	      0.43431306	     22.70026381	     -6.39222968	     -3.38547845	     63.42326778	     63.42326778	      4.51711470	    -17.96624172	      6.47920108	     17.35230837	     -3.05680241	     -4.66762578	     33.93720623	     33.93720623	     23.55457311	    -18.74259882	     13.10937188	    -11.70427014	      8.39746710	      2.82882127	      4.70347222	    -12.34146749	    -25.40379528	     21.02879950	     46.26531962	      0.00000000	      0.00000000	     23.94280328	    -18.71235449	      7.76863597	     47.25160434	     46.28188306	      0.00000000	      0.00000000
     44.18314286	     -4.65234119	     -4.84264058	     -5.19907230	      0.99163469	      0.91589753	      0.43467388	     24.19483529	     -6.12972613	     -3.30316216	     63.02515459	     63.02515459	      5.36637853	    -18.16652238	      6.51325859	     16.59987226	     -3.10432302	     -5.40997172	     33.11072736	     33.11072736	     23.46947744	    -18.68101725	     13.16711495	    -11.89012162	      8.46613131	      2.82147940	      2.24942034	    -11.86173536	    -25.33988221	     19.93734645	     46.30504553	      0.00000000	      0.00000000	     25.72464414	    -19.25217085	      7.11247038	     48.52488843	     46.37887001	      0.00000000	      0.00000000
     44.20228571	     -4.77345881	     -4.87384915	     -5.99754576	      0.98982455	      0.91793901	      0.43552264	     25.47632300	     -5.64174912	     -3.32374825	     61.68935178	     61.68935178	      6.36409380	    -18.16172691	      6.43817210	     15.77153456	     -3.27682263	     -6.17137137	     32.04007483	     32.04007483	     23.18241523	    -18.60371931	     13.15387603	    -12.03164459	      8.60655991	      2.87144543	     -0.07092940	    -11.46492396	    -25.25073364	     19.09088646	     46.33530190	      0.00000000	      0.00000000	     27.39448153	    -19.71876038	      6.27952819	     50.01487008	     46.49159813	      0.00000000	      0.00000000
     44.22142857	     -5.02359534	     -4.94726528	     -6.80339849	      0.98792565	      0.92044552	      0.43679780	     26.60266565	     -4.99643627	     -3.41848863	     59.41041716	     59.41041716	      7.34191658	    -17.92556581	      6.10330143	     14.96384546	     -3.50954918	     -6.93661973	     30.73361695	     30.73361695	     22.75979509	    -18.46354930	     13.22528689	    -12.02925402	      8.80551429	      2.76501862	     -2.11480191	    -11.11752979	    -25.19378855	     18.49929692	     46.35228511	      0.00000000	      0.00000000	     28.87241381	    -20.32956260	      5.49065663	     51.33415912	     46.59221524	      0.00000000	      0.00000000
     44.24057143	     -5.27711997	     -5.04721629	     -7.66514976	      0.98600896	      0.92318063	      0.43853536	     27.34928497	     -4.27885207	     -3.55903849	     56.08312574	     56.08312574	      7.22495002	    -17.60608078	      2.27286761	     14.01749185	     -3.81261602	     -7.89043940	     29.15368140	     29.15368140	     21.60040096	    -18.38990123	     11.62034664	    -12.13529625	      8.95287270	      2.48344869	     -4.45003780	    -10.83662856	    -24.27163340	     19.65760667	     46.29832506	      0.00000000	      0.00000000	     29.40805293	    -20.73560550	      2.15475620	     54.91968718	     46.94304166	      0.00000000	      0.00000000
     44.25971429	     -5.53408905	     -5.18450069	     -8.52311105	      0.98408022	      0.92617535	      0.44062284	     27.82443890	     -3.39729389	     -3.63607565	     52.09379794	     52.09379794	      7.96467100	    -16.40876077	      1.47055846	     13.06418551	     -4.10336932	     -8.69802572	     27.59383669	     27.59383669	     21.09775174	    -18.22076180	     11.95318816	    -12.16029811	      9.13964506	      2.61517829	     -6.16661510	    -10.69953607	    -24.06626694	     19.20049538	     46.30264255	      0.00000000	      0.00000000	     30.99471753	    -21.26934260	      1.53012992	     56.31103374	     47.02735275	      0.00000000	      0.00000000
     44.27885714	     -5.88513956	     -5.30390641	     -9.37082972	      0.98220309	      0.92873781	      0.44297596	     27.86814509	     -2.58425814	     -3.88059424	     46.95359070	     46.95359070	      6.59196264	    -15.38500723	     -4.88933091	     12.18098090	     -4.40115588	     -9.57285591	     25.97173342	     25.97173342	     20.13902009	    -18.08686467	     11.02649863	    -12.12271266	      9.30665437	      2.37642043	     -8.32243540	    -10.62215210	    -22.60199613	     21.09468407	     46.16191189	      0.00000000	      0.00000000	     31.55865156	    -21.88383256	     -0.73915256	     59.60801105	     47.27227479	      0.00000000	      0.00000000
